<svg xmlns="http://www.w3.org/2000/svg" viewBox="0 0 324.92 119.49"><defs><style>.cls-1{fill:#404041;}.cls-1,.cls-10,.cls-2,.cls-3,.cls-4,.cls-5,.cls-7,.cls-8,.cls-9{fill-rule:evenodd;}.cls-2{fill:#a15641;}.cls-11,.cls-3{fill:#fff;}.cls-4{fill:#58595b;}.cls-5{fill:#ec1c24;}.cls-6{fill:#ffd72c;}.cls-7{fill:#373539;}.cls-8{fill:#2a1707;}.cls-9{fill:#b96e5d;}.cls-10{fill:#363638;}.cls-12{fill:#525458;}.cls-13{fill:#696b6f;}</style></defs><title>fortuner</title><g id="Layer_2" data-name="Layer 2"><g id="OBJECTS"><polygon class="cls-1" points="35.07 97.6 302.55 96.25 308.18 52.92 21.75 54.34 35.07 97.6"/><path class="cls-2" d="M318.74,63.84s-.79-24.79-18.6-27-69.27-6.58-69.27-6.58-1.08-.46-4-1.88C212.4,17.48,188.14-.09,169.38,0L45.43.62,35.09.67,13.91.73A18.76,18.76,0,0,0,16.12,6,43.21,43.21,0,0,0,22,11.15c-6.64,9.12-16.87,28-16.87,28a54.84,54.84,0,0,0-1.2,10.68l.13,25.33L36.72,75s11-16.39,29.52-17.53,39.15,15.64,35.71,39.77l133.58-.66s-1.24-38.27,33.31-38.86c0,0,17.79-2.6,28.75,12.42L318.77,70Z"/><path class="cls-3" d="M317.25,54.7c-1.39-5.14-4.06-11.23-9.19-14.85l-20.83.1a19,19,0,0,0-.32,3.63c0,6.2,2.94,11.26,6.47,11.24Z"/><path class="cls-4" d="M270.2,54.41A38.17,38.17,0,0,1,295.68,64l23.06-.11.08,15.41,0,5.31s-3.19,9.41-10.3,11.66l-6,0,.1-5.89a32.16,32.16,0,0,0-2.81-11l-.18-.39-.1-.21-.18-.37-.11-.22-.19-.37h0l-.27-.51-.19-.35-.11-.2-.21-.37-.11-.19-.21-.35-.18-.28-.32-.5-.16-.25-.23-.34-.13-.18-.25-.35-.11-.15L296,73,296,73l-.28-.35-.12-.15-.26-.32-.2-.24-.21-.25,0,0-.38-.43-.27-.3-.15-.17-.29-.31-.16-.17-.27-.28-.24-.24-.39-.38-.28-.26-.23-.21-.24-.22-.26-.24-.28-.24-.2-.18-.44-.37,0,0-.27-.22-.27-.21L290,67l-.35-.26-.19-.14-.5-.36-.22-.16-.34-.23-.23-.15-.3-.2-.29-.18-.51-.31-.18-.11-.4-.23-.24-.13-.38-.21-.22-.12-.55-.29,0,0h0l-.59-.29-.2-.09-.44-.21-.2-.09-.48-.21-.16-.07-.61-.25-.21-.08-.45-.17-.23-.08-.42-.15-.25-.09-.64-.21-.07,0-.59-.18-.2-.06-.49-.14-.21-.06-.52-.13-.26-.06-.56-.13-.2,0-.53-.11-.19,0-.56-.1-.15,0-.68-.11-.18,0-.56-.07-.18,0-.54-.06-.19,0-.71-.06h-.14l-.55,0h-.27l-.51,0h-1.91l-.53,0h-.23l-.7,0-.18,0-.57.05-.24,0-.56.07-.16,0-.71.1-.21,0-.51.09-.26,0-.52.1-.18,0-.68.15-.23.06-.47.12-.25.07-.59.16-.07,0h0l-.64.19-.26.08-.44.15-.24.08-.61.22h0l-.11,0-.52.2-.27.11-.4.17-.25.11-.6.26-.2.1-.43.21-.24.12-.41.21-.22.11-.57.3-.23.13-.38.21-.26.15-.42.25-.16.09-.54.34-.27.18-.33.22-.22.15-.44.31-.19.14-.45.33-.26.2-.27.21-.27.21-.3.24-.48.4-.19.16-.3.26-.23.2-.27.25h0l-.42.39-.27.26-.2.2-.26.27-.22.23-.25.26-.39.42h0l-.23.26-.23.26-.23.27-.19.23-.49.6-.11.13-.28.36-.11.14-.28.37-.1.13-.5.71-.1.14-.23.34-.16.25-.2.31-.15.25-.34.57-.15.26-.19.33-.14.26-.18.32v0l-.27.51h0l-.19.37-.1.2-.19.39-.11.24-.16.36h0A32.23,32.23,0,0,0,238,92.89a33,33,0,0,0,.23,3.67l-6,0q-.18-1.81-.19-3.67a38.25,38.25,0,0,1,2.29-13.25l.27-.73.13-.34.18-.44.15-.36.19-.45.14-.32.24-.53.23-.48.23-.46.17-.32.22-.42.18-.34.22-.4.18-.32.39-.67.19-.3.25-.4.21-.33.24-.37.23-.35.26-.38.36-.51.29-.4.23-.31.26-.35.25-.33.27-.34.23-.29.49-.59.22-.25.33-.37L242,67l.31-.34.25-.27.43-.44.13-.13h0l.06-.06.49-.49.28-.27.32-.3.29-.27.33-.29.3-.27h0l.55-.47h0l.21-.18.43-.35.26-.21.4-.31.29-.22.48-.35.17-.12.65-.46.29-.19.42-.28.28-.18.48-.3.23-.14.7-.42.18-.1.55-.31.3-.16.46-.25.28-.14.53-.27.24-.12.7-.33.33-.15.44-.2.33-.14.48-.2.32-.13.69-.27.29-.11.56-.2.32-.11.5-.16.32-.1.69-.21.1,0,.85-.23.19,0,.65-.16.27-.06.62-.14.24-.05.85-.17h0l.12,0,.72-.12.32,0,.56-.08.33,0,.68-.08.18,0,.9-.08h.17l.72,0,.27,0,.65,0h.28Z"/><path class="cls-4" d="M0,71.09l37.37-.19-1.87,10H34.27c0,.08,0,.16,0,.24l.06,12.71a3.77,3.77,0,0,1-3.75,3.79l-25.91.13A3.77,3.77,0,0,1,.9,94L.84,81.3c0-.08,0-.16,0-.24H0Z"/><path class="cls-4" d="M99,97.28a32.35,32.35,0,1,0-63.88.32l-6.05,0a38.32,38.32,0,1,1,76.28-5.39,38.66,38.66,0,0,1-.3,5Z"/><path class="cls-4" d="M.13,71.08l35.28-.18a38.33,38.33,0,0,1,67.69,8.32l-6.36,0a32.36,32.36,0,0,0-59.38.29L.17,79.74Z"/><path class="cls-5" d="M6.76,36.35c-1,1.77-1.58,2.86-1.58,2.86A54.65,54.65,0,0,0,4,49.9L4.06,68.4l7.42,0-.16-32Z"/><rect class="cls-6" x="4.08" y="48.33" width="10.35" height="20.02" transform="translate(-0.31 0.05) rotate(-0.31)"/><path class="cls-7" d="M17.4,30.81l48.2-.08L65.47,6H40.68C31.12,8.14,22.33,23.12,17.4,30.81ZM73.09,6h0l.12,24.72,56.33-.09L129.42,6,73.09,6Zm64.07,24.62h0l80.09-.13C203.87,22.85,189.53,5.91,166.81,6H137Z"/><path class="cls-8" d="M143.45,40.08V39.2a1.38,1.38,0,0,1,1.25-1.48l14.81-.07a1.38,1.38,0,0,1,1.26,1.47V40Z"/><path class="cls-8" d="M76.57,40.41v-.88A1.38,1.38,0,0,1,77.81,38L92.62,38a1.38,1.38,0,0,1,1.26,1.47v.88Z"/><polygon class="cls-4" points="100.98 98.72 238.09 96.96 238.08 91.02 100.97 92.78 100.98 98.72"/><path class="cls-9" d="M210.18,35.34c3.08.87,15.62.06,16.34-2.58S216.4,23,210.13,23.64Z"/><path class="cls-4" d="M321.11,63.83l-14.58.07a3.72,3.72,0,0,0-3.69,3.73l.09,17.58a3.72,3.72,0,0,0,3.73,3.69l14.58-.07a3.72,3.72,0,0,0,3.69-3.73l-.09-17.58A3.72,3.72,0,0,0,321.11,63.83Z"/><path class="cls-10" d="M47.45,111.67a27,27,0,1,0-.19-38.17,27,27,0,0,0,.19,38.17Zm33-5.35h0a19.66,19.66,0,1,1-.14-27.8A19.66,19.66,0,0,1,80.41,106.33Z"/><circle class="cls-11" cx="66.44" cy="92.49" r="22.31" transform="translate(-0.46 0.33) rotate(-0.28)"/><circle class="cls-12" cx="66.44" cy="92.49" r="19.65" transform="translate(-0.46 0.33) rotate(-0.28)"/><circle class="cls-13" cx="65.52" cy="92.96" r="6.84" transform="translate(-46.64 74.12) rotate(-45.28)"/><path class="cls-3" d="M64.22,114.06,63,99.18l-11.3,9.75-2-2,9.64-11.39L44.44,94.47l0-2.81L59.3,90.42l-9.75-11.3,2-2,11.39,9.64L64,71.88h2.81l1.24,14.87L79.36,77l2,2L71.72,90.36,86.6,91.45v2.81L71.74,95.5l9.75,11.3-2,2L68.12,99.16,67,114Zm0-17.88h2.66l1.87-1.89V91.62l-1.89-1.87H64.18l-1.87,1.89v2.66Z"/><path class="cls-10" d="M251.13,111.67a27,27,0,1,0-.19-38.17,27,27,0,0,0,.19,38.17Zm33-5.35h0a19.66,19.66,0,1,1-.14-27.8A19.66,19.66,0,0,1,284.09,106.33Z"/><circle class="cls-11" cx="270.12" cy="92.49" r="22.31" transform="translate(-0.45 1.34) rotate(-0.28)"/><circle class="cls-12" cx="270.12" cy="92.49" r="19.65" transform="translate(-0.46 1.34) rotate(-0.28)"/><circle class="cls-13" cx="269.2" cy="92.96" r="6.84" transform="translate(13.73 218.85) rotate(-45.28)"/><path class="cls-3" d="M267.9,114.06l-1.24-14.87-11.3,9.75-2-2L263,95.57l-14.88-1.09,0-2.81L263,90.42l-9.75-11.3,2-2,11.39,9.64,1.09-14.88h2.81l1.24,14.87L283,77l2,2L275.4,90.36l14.88,1.09v2.81L275.43,95.5l9.75,11.3-2,2-11.39-9.64L270.71,114Zm0-17.88h2.66l1.87-1.89V91.62l-1.89-1.87h-2.66L266,91.65v2.66Z"/><path class="cls-7" d="M192,6s-1.41,1.29-1.3,1.58,37.87,23.44,37.87,23.44l2.35-.8C218.8,22.43,210.8,15.44,192,6Z"/></g></g></svg>