<svg xmlns="http://www.w3.org/2000/svg" viewBox="0 0 298.7 147.29"><defs><style>.cls-1{fill:#58574b;}.cls-1,.cls-10,.cls-11,.cls-15,.cls-2,.cls-3,.cls-4,.cls-8,.cls-9{fill-rule:evenodd;}.cls-2{fill:#402639;}.cls-3{fill:#e6e7e8;}.cls-4,.cls-6{fill:#404041;}.cls-5,.cls-9{fill:#303233;}.cls-7{fill:#f79821;}.cls-8{fill:#ec1c24;}.cls-10,.cls-16{fill:#4b4a43;}.cls-11{fill:#363638;}.cls-12,.cls-15{fill:#fff;}.cls-13{fill:#525458;}.cls-14{fill:#696b6f;}</style></defs><title>jeep</title><g id="Layer_2" data-name="Layer 2"><g id="OBJECTS"><path class="cls-1" d="M217.16,56.22S201.31,22.35,194.83,6.06C193.16,1.88,190,0,188,0H28.11a2.33,2.33,0,0,0-.38,0L15.26.47s-1,15.75,5.79,15.56V56.68Z"/><path class="cls-1" d="M202.75,112.17H21.06V51.77h23.3c19.38,0,229.83-.55,233.56,0,5,.71,9.81,2.35,12.41,6.32q.82,1.25,1.61,2.53c.17.27.35.52.52.78v50.79Z"/><path class="cls-2" d="M290.7,74.71c0-.61.66-1.1,1.47-1.1s1.47.49,1.47,1.1V106c0,.61-.66,1.1-1.47,1.1s-1.47-.49-1.47-1.1Z"/><path class="cls-3" d="M292.27,61.39c2.35,1,4.11,5.13,4.11,10s-1.76,9-4.11,10Z"/><path class="cls-4" d="M38.14,6.36h0c-3.69,0-10.66,3.25-10.66,15.57V51.26h179.1L185.87,7.09c-32.86-.63-64.54-.73-97.51-.73H38.14Zm45.43,0"/><rect class="cls-5" x="21.06" y="112.17" width="271.41" height="8.63"/><path class="cls-1" d="M290.33,56.89c.55.84,1.09,1.68,1.61,2.53.08.14.17.27.26.4H21.06V51.19l185.53.07,5.81-6.57,68.75,6.49C284.91,52.11,288.3,53.78,290.33,56.89Z"/><rect class="cls-6" x="146.84" y="54.99" width="13.48" height="3.1"/><rect class="cls-7" x="285.89" y="64.88" width="4.75" height="11.7"/><polygon class="cls-8" points="20.52 91.08 20.48 76.17 29.36 76.17 29.36 90.81 20.52 91.08"/><rect class="cls-7" x="20.49" y="67.61" width="8.87" height="8.57"/><polygon class="cls-9" points="37.34 117.67 48.88 88 97.4 88.3 109.53 118.11 37.34 117.67"/><polygon class="cls-10" points="36.23 112.17 46.72 86.11 98.47 86.11 109.7 112.9 104.99 112.9 96.35 91.03 48.85 91.03 40.94 112.17 36.23 112.17"/><path class="cls-11" d="M52.79,139.58a26.66,26.66,0,1,0-.19-37.71,26.66,26.66,0,0,0,.19,37.71Zm32.56-5.28h0a19.42,19.42,0,1,1-.14-27.47A19.42,19.42,0,0,1,85.36,134.29Z"/><circle class="cls-12" cx="71.56" cy="120.63" r="22.04" transform="translate(-0.6 0.36) rotate(-0.28)"/><circle class="cls-13" cx="71.56" cy="120.63" r="19.42" transform="translate(-0.6 0.36) rotate(-0.28)"/><circle class="cls-14" cx="70.65" cy="121.09" r="6.76" transform="translate(-65.11 86.1) rotate(-45.29)"/><path class="cls-15" d="M69.36,141.93l-1.23-14.69L57,136.87l-2-2,9.52-11.26-14.7-1.08,0-2.77,14.69-1.23-9.63-11.16,2-2L68.08,115l1.08-14.7h2.77l1.23,14.69,11.16-9.63,2,2-9.52,11.26,14.7,1.08v2.77L76.79,123.6l9.63,11.16-2,2-11.26-9.52-1.08,14.7Zm0-17.66H72l1.85-1.87v-2.63l-1.87-1.85H69.32l-1.85,1.87v2.63Z"/><path class="cls-11" d="M0,38.91a2.5,2.5,0,0,1,2.35-2.62H18a2.5,2.5,0,0,1,2.35,2.62v48A2.5,2.5,0,0,1,18,89.57H2.35A2.5,2.5,0,0,1,0,86.95Z"/><polygon class="cls-9" points="207.5 117.67 219.04 88 267.56 88.3 279.69 118.11 207.5 117.67"/><polygon class="cls-10" points="206.39 112.17 216.88 86.11 268.63 86.11 279.85 112.9 275.15 112.9 266.5 91.03 219.01 91.03 211.09 112.17 206.39 112.17"/><path class="cls-11" d="M223,139.58a26.66,26.66,0,1,0-.19-37.71,26.66,26.66,0,0,0,.19,37.71Zm32.56-5.28h0a19.42,19.42,0,1,1-.14-27.47A19.42,19.42,0,0,1,255.51,134.29Z"/><circle class="cls-12" cx="241.71" cy="120.63" r="22.04" transform="translate(-0.6 1.2) rotate(-0.28)"/><circle class="cls-13" cx="241.71" cy="120.63" r="19.42" transform="translate(-0.6 1.2) rotate(-0.28)"/><circle class="cls-14" cx="240.8" cy="121.09" r="6.76" transform="translate(-14.67 207.02) rotate(-45.29)"/><path class="cls-15" d="M239.52,141.93l-1.23-14.69-11.16,9.63-2-2,9.52-11.26L220,122.58l0-2.77,14.69-1.23L225,107.42l2-2L238.23,115l1.08-14.7h2.77l1.23,14.69,11.16-9.63,2,2-9.52,11.26,14.7,1.08v2.77L247,123.6l9.63,11.16-2,2-11.26-9.52-1.08,14.7Zm0-17.66h2.63l1.85-1.87v-2.63l-1.87-1.85h-2.63l-1.85,1.87v2.63Z"/><rect class="cls-16" x="104.39" y="111.37" width="106.71" height="10.54"/><rect class="cls-16" x="15.93" y="110.49" width="25.28" height="10.54"/><rect class="cls-16" x="275.15" y="103.86" width="23.55" height="17.17"/><polygon class="cls-4" points="212.4 44.7 195.03 6.36 191.69 6.36 210.36 46.99 212.4 44.7"/><path class="cls-1" d="M135.32,2.74s6.57,51.53,6.58,52.46S134,53.37,134,54.76s-3.21-51.88-3.21-51.88Z"/><rect class="cls-6" x="74.07" y="54.99" width="13.48" height="3.1"/><path class="cls-1" d="M58.69,4.36s-.22,50.58-.22,51.51-7.89-1.82-7.89-.44S54.16,4.5,54.16,4.5Z"/><path class="cls-4" d="M199.39,34h2.16a2.16,2.16,0,0,1,2.16,2.16V53.48a2.16,2.16,0,0,1-2.16,2.16h-2.16Z"/><path class="cls-1" d="M187.19,4.12c.22,0,4.51,2.23,4.51,2.23h3.25l5.65.07L193,2.92Z"/></g></g></svg>