<svg xmlns="http://www.w3.org/2000/svg" xmlns:xlink="http://www.w3.org/1999/xlink" viewBox="0 0 338.12 119.33"><defs><style>.cls-1{fill:#23211e;}.cls-1,.cls-10,.cls-11,.cls-12,.cls-13,.cls-2,.cls-4,.cls-5,.cls-7,.cls-8,.cls-9{fill-rule:evenodd;}.cls-2{fill:#404041;}.cls-3{fill:#58595b;}.cls-4{fill:#fff;}.cls-5{fill:#363638;}.cls-6{fill:#9da0a5;}.cls-7{fill:#e6e7e8;}.cls-8{fill:#d0d2d3;}.cls-9{fill:#c7c9ce;}.cls-10{fill:#fbf9f6;}.cls-11{fill:url(#GradientFill_2);}.cls-12{fill:#ced0d1;}.cls-13{fill:url(#GradientFill_1);}</style><linearGradient id="GradientFill_2" x1="324.56" y1="43.5" x2="321.62" y2="58.61" gradientTransform="matrix(-1, 0, 0, 1, 338.12, 0)" gradientUnits="userSpaceOnUse"><stop offset="0" stop-color="#f3807c"/><stop offset="0.5" stop-color="#ee3d57"/><stop offset="1" stop-color="#dd1e47"/></linearGradient><linearGradient id="GradientFill_1" x1="2.76" y1="-1184.72" x2="2.76" y2="1314.04" gradientTransform="matrix(-1, 0, 0, 1, 338.12, 0)" gradientUnits="userSpaceOnUse"><stop offset="0" stop-color="#fff"/><stop offset="1" stop-color="#231f20"/></linearGradient></defs><title>premiem</title><g id="Layer_2" data-name="Layer 2"><g id="OBJECTS"><polygon class="cls-1" points="296.67 50.07 320.15 68.58 317.39 87.52 307.3 98.74 244.65 99.86 91.79 101.62 39.76 92.37 32.85 90.61 46.66 56.68 91.32 44.78 296.67 50.07"/><path class="cls-2" d="M191.24,5.53c.06,0,30.27,10.39,54.65,23,0,0,8,6.08,5.9,10.45l-7.6,5.53L180.64,11.29,186.4,7Z"/><path class="cls-2" d="M76.94,9.22s-34.88,13.12-43.05,19l-7.94,2.53-1.38,4.6,7,5.07L78.32,13.7Z"/><circle class="cls-3" cx="274.62" cy="92.43" r="20.55" transform="translate(180.83 366.59) rotate(-89.71)"/><polygon class="cls-4" points="274.77 71.99 270.23 86.04 255.47 86.01 267.43 94.67 262.84 108.7 274.77 100 286.7 108.7 282.11 94.67 294.07 86.01 279.31 86.04 274.77 71.99"/><path class="cls-5" d="M293.8,111.5a27,27,0,1,0-38.25-.19,27,27,0,0,0,38.25.19ZM260.91,78.29a19.7,19.7,0,1,1-.14,27.86h0A19.7,19.7,0,0,1,260.91,78.29Z"/><circle class="cls-6" cx="274.77" cy="92.28" r="5.3" transform="translate(181.13 366.6) rotate(-89.72)"/><path class="cls-4" d="M288.77,78.42a19.7,19.7,0,1,1-27.86-.14,19.7,19.7,0,0,1,27.86.14Zm7.56,13.86a21.56,21.56,0,1,0-21.56,21.56A21.56,21.56,0,0,0,296.33,92.28Z"/><path class="cls-4" d="M276.79,71.37c.05-.55,2.52,14.67,2.52,14.67h-9.52s2.58-14.3,2.52-14.74S276.79,71.37,276.79,71.37Z"/><path class="cls-4" d="M294.72,88.2c.53-.11-12.88,6.51-12.88,6.51l-2.71-8.82s14-1.69,14.38-1.86S294.72,88.2,294.72,88.2Z"/><path class="cls-4" d="M284.46,110.19c.26.47-10-10.43-10-10.43l7.66-5.15s5.67,12.9,5.94,13.22S284.46,110.19,284.46,110.19Z"/><path class="cls-4" d="M260.66,107.78c-.37.41,6.76-13.22,6.76-13.22l7.6,5.69s-10.61,9.88-10.83,10.26S260.66,107.78,260.66,107.78Z"/><path class="cls-4" d="M255.84,84c-.5-.22,14.49,2.16,14.49,2.16L267.4,95s-12.58-6.81-13-6.9S255.84,84,255.84,84Z"/><circle class="cls-3" cx="63.17" cy="92.43" r="20.55" transform="matrix(0, -1, 1, 0, -29.58, 155.13)"/><polygon class="cls-4" points="63.31 71.99 58.77 86.04 44.01 86.01 55.97 94.67 51.38 108.7 63.31 100 75.24 108.7 70.65 94.67 82.61 86.01 67.85 86.04 63.31 71.99"/><path class="cls-5" d="M82.34,111.5a27,27,0,1,0-38.25-.19,27,27,0,0,0,38.25.19ZM49.45,78.29a19.7,19.7,0,1,1-.14,27.86h0A19.7,19.7,0,0,1,49.45,78.29Z"/><circle class="cls-6" cx="63.31" cy="92.28" r="5.3" transform="translate(-29.29 155.14) rotate(-89.72)"/><path class="cls-4" d="M77.31,78.42a19.7,19.7,0,1,1-27.86-.14,19.7,19.7,0,0,1,27.86.14Zm7.56,13.86a21.56,21.56,0,1,0-21.56,21.56A21.56,21.56,0,0,0,84.87,92.28Z"/><path class="cls-4" d="M65.33,71.37C65.38,70.82,67.85,86,67.85,86H58.33s2.58-14.3,2.53-14.74S65.33,71.37,65.33,71.37Z"/><path class="cls-4" d="M83.26,88.2c.53-.11-12.87,6.51-12.87,6.51l-2.71-8.82s14-1.69,14.38-1.86S83.26,88.2,83.26,88.2Z"/><path class="cls-4" d="M73,110.19c.26.47-10-10.43-10-10.43l7.65-5.15s5.67,12.9,5.94,13.22S73,110.19,73,110.19Z"/><path class="cls-4" d="M49.2,107.78c-.37.41,6.76-13.22,6.76-13.22l7.6,5.69s-10.61,9.88-10.83,10.26S49.2,107.78,49.2,107.78Z"/><path class="cls-4" d="M44.38,84c-.5-.22,14.49,2.16,14.49,2.16L55.94,95s-12.58-6.81-13-6.9S44.38,84,44.38,84Z"/><path class="cls-7" d="M337.11,75.17c2.51-7.3-.15-12.63-2.66-18.55-3.76-8.87-72.72-25.55-89.88-28.76,0,0,7,3.45.35,9.67,0,0-45.93-24.52-57-29l3.45-3.45S147.88-8.74,77.09,9.22v2.07L33.24,34.08s-9.37-1.38.65-5.87C14.62,34.41,8.13,34.76,7,38.22l.34,18.65V62.4s-8.29,3.11-7.25,9A87.63,87.63,0,0,0,2.85,82.42l1.73,1,.69,7.25s17.42,9.7,31.23,10.74c-3.75-17.49,2.67-34.79,28.75-34,22.45.69,26.7,23.94,26.7,23.94l.34,9.67.35,2.07,150.9-2.76V91.75s.17-23.23,31.59-25,30.62,30.37,30.62,30.37l.69,4.83s24.15-.3,28.66-9.67C335.1,92.32,335.39,79.32,337.11,75.17Z"/><path class="cls-8" d="M235.89,100.52l7.64-.14V91.75s.17-23.23,31.59-25,30.62,30.37,30.62,30.37l.69,4.83s24.15-.3,28.66-9.67c0,0,.08-3.61.41-7.63l-20.56,3s-3.21-9.64-13-18.73C283.24,51.62,252.88,56.29,239,79c-3.61,5.92-5.19,16.74-5.19,16.74S234.51,97.66,235.89,100.52Z"/><path class="cls-8" d="M7.34,62.4s-8.29,3.11-7.25,9A87.63,87.63,0,0,0,2.85,82.42l1.73,1,.69,7.25s17.42,9.7,31.23,10.74C33.9,85,39.17,66.66,65.24,67.47c22.45.69,26.7,23.94,26.7,23.94l.21,6c5.82-2,9.49-3.5,9.49-3.5C96.06,71.71,80.27,52.46,54.89,59.26,43.06,62.44,36,72.54,36,72.54a69.81,69.81,0,0,1-14.43-3.46A121.62,121.62,0,0,1,7.34,62.4Z"/><polygon class="cls-8" points="243.95 92.09 243.26 100.15 92.94 103.14 92.48 101.07 92.02 92.09 95.93 91.86 100.77 93.93 235.21 93.7 236.59 91.86 243.95 92.09"/><path class="cls-9" d="M337.4,74.28l-1.9,10.41s-18.49,3.89-20.56,3l1.5-9S335.1,77.5,337.4,74.28Z"/><path class="cls-10" d="M331.55,57.1a18,18,0,0,0-4.49-5,30.75,30.75,0,0,0-8.46,1.21,91.42,91.42,0,0,1-9,1.9s-5.7,1.38,2.59,4S326,61.59,329.13,60,331.55,57.1,331.55,57.1Z"/><path class="cls-2" d="M238.66,43.29,167.52,41l-31-.92c5-19,4.06-16.15,9.68-33,23.89.07,34.42,4.21,34.42,4.21,21.64,6.45,58,32,58,32ZM134.14,7.37C101.68,9,90.17,15.2,82.58,18.88c0,0-11.51,7.37-14.5,10.13,0,0-9.44,9.21-.92,9.21,4.88,0,37.14.91,63.78,1.68l9.43-32.76Q137.38,7.22,134.14,7.37Z"/><ellipse class="cls-3" cx="163.64" cy="51.08" rx="8.72" ry="1.47"/><ellipse class="cls-3" cx="81.11" cy="47.63" rx="8.72" ry="1.47"/><path class="cls-11" d="M7.11,44.62s9.06-.21,13.55,1.06,3.3,9.05-.25,11.42c-2.42,1.61-10.94.47-13,0C7.41,57.1,5.39,49,7.11,44.62Z"/><path class="cls-12" d="M223,46c3.08.87,15.62.06,16.34-2.58s-10.13-9.72-16.4-9.12Z"/><path class="cls-13" d="M334.29,56.32s-1.45-1.34-1.56,2.93.9,13.92,2.44,14,2.74-.88,2.76-1.33C338.63,61.17,334.29,56.32,334.29,56.32Z"/></g></g></svg>